<svg id="visual" viewBox="0 0 900 450" width="900" height="450" xmlns="http://www.w3.org/2000/svg" xmlns:xlink="http://www.w3.org/1999/xlink" version="1.1"><path d="M0 15L225 15L450 15L675 19L900 15L900 0L675 0L450 0L225 0L0 0Z" fill="#faeb00"></path><path d="M0 42L225 46L450 46L675 55L900 42L900 13L675 17L450 13L225 13L0 13Z" fill="#fecf17"></path><path d="M0 96L225 109L450 100L675 105L900 96L900 40L675 53L450 44L225 44L0 40Z" fill="#fcb52a"></path><path d="M0 118L225 127L450 118L675 123L900 118L900 94L675 103L450 98L225 107L0 94Z" fill="#f49d38"></path><path d="M0 163L225 168L450 159L675 159L900 154L900 116L675 121L450 116L225 125L0 116Z" fill="#e68743"></path><path d="M0 190L225 195L450 186L675 181L900 181L900 152L675 157L450 157L225 166L0 161Z" fill="#d4744b"></path><path d="M0 226L225 231L450 213L675 222L900 217L900 179L675 179L450 184L225 193L0 188Z" fill="#bd6350"></path><path d="M0 244L225 244L450 231L675 235L900 235L900 215L675 220L450 211L225 229L0 224Z" fill="#a45652"></path><path d="M0 262L225 262L450 249L675 253L900 253L900 233L675 233L450 229L225 242L0 242Z" fill="#884b4f"></path><path d="M0 343L225 357L450 343L675 334L900 343L900 251L675 251L450 247L225 260L0 260Z" fill="#6c4149"></path><path d="M0 366L225 379L450 366L675 357L900 361L900 341L675 332L450 341L225 355L0 341Z" fill="#4f383f"></path><path d="M0 451L225 451L450 451L675 451L900 451L900 359L675 355L450 364L225 377L0 364Z" fill="#352e31"></path></svg>